<svg xmlns="http://www.w3.org/2000/svg" viewBox="0 0 128 128" width="512" height="512" role="img" aria-label="Flutter Supabase Riverpod">
  <!-- background plate -->
  <rect width="128" height="128" rx="28" fill="#0B1220"/>
  <rect x="3.5" y="3.5" width="121" height="121" rx="24.5" fill="none" stroke="#1E293B" stroke-width="2"/>

  <!-- architecture layers: widget / notifier / repository -->
  <rect x="70" y="34" width="36" height="16" rx="5" fill="#27C6F6"/>
  <rect x="70" y="54" width="36" height="16" rx="5" fill="#3B6FE0"/>
  <rect x="70" y="74" width="36" height="16" rx="5" fill="#3ECF8E"/>

  <!-- river flow connecting dart to layers -->
  <path d="M58 42 C66 42, 66 42, 70 42" fill="none" stroke="#27C6F6" stroke-width="2.5" stroke-linecap="round"/>
  <path d="M58 62 C66 62, 66 62, 70 62" fill="none" stroke="#6BA8FF" stroke-width="2.5" stroke-linecap="round"/>
  <path d="M58 82 C66 82, 66 82, 70 82" fill="none" stroke="#3ECF8E" stroke-width="2.5" stroke-linecap="round"/>

  <!-- original dart / chevron -->
  <path fill="#27C6F6" d="M22 64 L54 32 L66 44 L46 64 L66 84 L54 96 Z"/>
  <path fill="#0175C2" d="M46 64 L66 44 L70 48 L54 64 L70 80 L66 84 Z"/>
</svg>
